<svg width="20" height="20" viewBox="0 0 20 20" fill="none" xmlns="http://www.w3.org/2000/svg">
<path d="M10 6.36364C7.99091 6.36364 6.36364 7.99091 6.36364 10C6.36364 12.0091 7.99091 13.6364 10 13.6364C12.0091 13.6364 13.6364 12.0091 13.6364 10C13.6364 7.99091 12.0091 6.36364 10 6.36364ZM19.0121 9.09091C18.5085 9.09091 18.0919 8.7097 17.9828 8.21801C17.2978 5.13148 14.8685 2.70223 11.782 2.01722C11.2903 1.9081 10.9091 1.49151 10.9091 0.987854V0.909091C10.9091 0.407014 10.5021 0 10 0V0C9.49792 0 9.09091 0.407014 9.09091 0.909091V0.987853C9.09091 1.49151 8.7097 1.9081 8.21801 2.01722C5.13148 2.70223 2.70223 5.13148 2.01722 8.21801C1.9081 8.7097 1.49151 9.09091 0.987854 9.09091H0.909091C0.407014 9.09091 0 9.49792 0 10V10C0 10.5021 0.407014 10.9091 0.909091 10.9091H0.987853C1.49151 10.9091 1.9081 11.2903 2.01722 11.782C2.70223 14.8685 5.13148 17.2978 8.21801 17.9828C8.7097 18.0919 9.09091 18.5085 9.09091 19.0121V19.0909C9.09091 19.593 9.49792 20 10 20V20C10.5021 20 10.9091 19.593 10.9091 19.0909V19.0121C10.9091 18.5085 11.2903 18.0919 11.782 17.9828C14.8685 17.2978 17.2978 14.8685 17.9828 11.782C18.0919 11.2903 18.5085 10.9091 19.0121 10.9091H19.0909C19.593 10.9091 20 10.5021 20 10V10C20 9.49792 19.593 9.09091 19.0909 9.09091H19.0121ZM10 16.3636C6.48182 16.3636 3.63636 13.5182 3.63636 10C3.63636 6.48182 6.48182 3.63636 10 3.63636C13.5182 3.63636 16.3636 6.48182 16.3636 10C16.3636 13.5182 13.5182 16.3636 10 16.3636Z" fill="currentColor"/>
</svg>
