<svg width="20" height="20" viewBox="0 0 20 20" fill="none" xmlns="http://www.w3.org/2000/svg">
<path fill-rule="evenodd" clip-rule="evenodd" d="M10 10.0021C7.794 10.0021 6 8.20813 6 6.00213C6 3.79613 7.794 2.00213 10 2.00213C12.206 2.00213 14 3.79613 14 6.00213C14 8.20813 12.206 10.0021 10 10.0021ZM15.3396 11.435C14.6737 11.038 14.5105 10.0316 14.9493 9.39248C15.1231 9.13934 15.2777 8.87248 15.4113 8.59404C15.7994 7.78515 16.0006 6.8993 16 6.00213C16.0007 4.98767 15.7442 3.98965 15.2545 3.10125C14.7647 2.21284 14.0577 1.46302 13.1996 0.922048C12.3414 0.381079 11.3601 0.0665843 10.3473 0.00786304C9.33457 -0.0508582 8.32346 0.148195 7.40851 0.586354C6.49356 1.02451 5.70465 1.68751 5.11551 2.51336C4.52637 3.33921 4.15622 4.3009 4.0397 5.30864C3.92319 6.31638 4.06408 7.33719 4.44922 8.27569C4.61112 8.6702 4.81396 9.04474 5.05345 9.3936C5.49188 10.0322 5.32827 11.0371 4.66281 11.4336C2.10773 12.9561 0.334366 15.6128 0.0424835 19.0026C-0.00489686 19.5528 0.447715 20.0021 1 20.0021V20.0021C1.55228 20.0021 1.99393 19.5524 2.04965 19.0029C2.49564 14.6051 5.89121 12.0021 10 12.0021C14.1088 12.0021 17.5044 14.6051 17.9504 19.0029C18.0061 19.5524 18.4477 20.0021 19 20.0021V20.0021C19.5523 20.0021 20.0049 19.5528 19.9575 19.0026C19.6657 15.6139 17.8934 12.9577 15.3396 11.435Z" fill="currentColor"/>
</svg>
