<svg width="20" height="20" viewBox="0 0 20 20" fill="none" xmlns="http://www.w3.org/2000/svg">
<path fill-rule="evenodd" clip-rule="evenodd" d="M10 10.0021C7.794 10.0021 6 8.20813 6 6.00213C6 3.79613 7.794 2.00213 10 2.00213C12.206 2.00213 14 3.79613 14 6.00213C14 8.20813 12.206 10.0021 10 10.0021ZM13.758 10.6751C14.4582 10.1141 15.0232 9.40294 15.4113 8.59404C15.7994 7.78515 16.0006 6.8993 16 6.00213C16.0007 4.98767 15.7442 3.98965 15.2545 3.10125C14.7647 2.21284 14.0577 1.46302 13.1996 0.922048C12.3414 0.381079 11.3601 0.0665843 10.3473 0.00786304C9.33457 -0.0508582 8.32346 0.148195 7.40851 0.586354C6.49356 1.02451 5.70465 1.68751 5.11551 2.51336C4.52637 3.33921 4.15622 4.30091 4.0397 5.30864C3.92319 6.31638 4.06408 7.33719 4.44922 8.27569C4.83436 9.21418 5.45118 10.0397 6.242 10.6751C2.583 12.0501 0 15.4471 0 20.0021H2C2 15.0021 5.589 12.0021 10 12.0021C14.411 12.0021 18 15.0021 18 20.0021H20C20 15.4471 17.417 12.0501 13.758 10.6751Z" fill="#232323"/>
</svg>
