<svg width="25" height="24" viewBox="0 0 25 24" fill="none" xmlns="http://www.w3.org/2000/svg">
<g clip-path="url(#clip0_467_11303)">
<path fill-rule="evenodd" clip-rule="evenodd" d="M21.767 20.4C21.767 21.0624 21.2299 21.6 20.567 21.6C19.9041 21.6 19.367 21.0624 19.367 20.4V3.6C19.367 2.9376 19.9041 2.4 20.567 2.4C21.2299 2.4 21.767 2.9376 21.767 3.6V20.4ZM21.767 0H19.367C18.0413 0 16.967 1.074 16.967 2.4V21.6C16.967 22.926 18.0413 24 19.367 24H21.767C23.0927 24 24.167 22.926 24.167 21.6V2.4C24.167 1.074 23.0927 0 21.767 0ZM13.367 20.4C13.367 21.0624 12.8299 21.6 12.167 21.6C11.5041 21.6 10.967 21.0624 10.967 20.4V8.4C10.967 7.7376 11.5041 7.2 12.167 7.2C12.8299 7.2 13.367 7.7376 13.367 8.4V20.4ZM13.367 4.8H10.967C9.64128 4.8 8.56699 5.874 8.56699 7.2V21.6C8.56699 22.926 9.64128 24 10.967 24H13.367C14.6927 24 15.767 22.926 15.767 21.6V7.2C15.767 5.874 14.6927 4.8 13.367 4.8ZM4.96699 20.4C4.96699 21.0624 4.42985 21.6 3.76699 21.6C3.10414 21.6 2.56699 21.0624 2.56699 20.4V15.6C2.56699 14.9376 3.10414 14.4 3.76699 14.4C4.42985 14.4 4.96699 14.9376 4.96699 15.6V20.4ZM4.96699 12H2.56699C1.24128 12 0.166992 13.074 0.166992 14.4V21.6C0.166992 22.926 1.24128 24 2.56699 24H4.96699C6.29271 24 7.36699 22.926 7.36699 21.6V14.4C7.36699 13.074 6.29271 12 4.96699 12Z" fill="#232323"/>
</g>
<defs>
<clipPath id="clip0_467_11303">
<rect width="24" height="24" fill="white" transform="translate(0.166992)"/>
</clipPath>
</defs>
</svg>
