<svg width="512" height="512" viewBox="0 0 512 512" fill="none" xmlns="http://www.w3.org/2000/svg">
<path fill-rule="evenodd" clip-rule="evenodd" d="M280.387 366.797L279.104 368.689C279.103 368.69 279.102 368.695 279.1 368.698C279.096 368.704 279.088 368.712 279.08 368.724C279.064 368.749 279.039 368.787 279.006 368.836C278.94 368.935 278.84 369.084 278.714 369.277C278.46 369.663 278.094 370.227 277.645 370.939C276.745 372.363 275.514 374.374 274.186 376.718C271.518 381.426 268.506 387.404 266.992 392.65C264.555 401.096 263.341 407.722 262.735 412.223C262.432 414.473 262.28 416.192 262.205 417.342C262.168 417.917 262.149 418.35 262.14 418.635C262.136 418.778 262.132 418.885 262.131 418.954V420.264H249.858V418.954C249.857 418.885 249.853 418.778 249.848 418.635C249.839 418.35 249.821 417.917 249.783 417.342C249.708 416.192 249.557 414.473 249.254 412.223C248.648 407.722 247.434 401.096 244.996 392.65C243.483 387.404 240.471 381.426 237.803 376.718C236.475 374.374 235.244 372.363 234.344 370.939C233.894 370.227 233.528 369.663 233.275 369.277C233.148 369.084 233.049 368.935 232.982 368.836C232.949 368.787 232.925 368.749 232.908 368.724C232.9 368.712 232.893 368.704 232.889 368.698C232.887 368.695 232.885 368.692 232.884 368.691L231.602 366.797H280.387ZM236.151 369.227C236.237 369.363 236.331 369.502 236.425 369.65C237.34 371.099 238.592 373.144 239.943 375.529C242.635 380.279 245.76 386.455 247.355 391.981C249.827 400.545 251.068 407.287 251.689 411.9C252 414.206 252.155 415.981 252.233 417.185C252.249 417.424 252.257 417.64 252.267 417.833H259.722C259.732 417.64 259.74 417.424 259.755 417.185C259.834 415.981 259.989 414.206 260.299 411.9C260.921 407.287 262.162 400.545 264.633 391.981C266.228 386.455 269.354 380.279 272.045 375.529C273.396 373.144 274.648 371.099 275.564 369.65C275.657 369.502 275.751 369.363 275.837 369.227H236.151Z" fill="#287C48"/>
<path d="M236.151 369.227C236.237 369.363 236.331 369.502 236.425 369.65C237.34 371.099 238.592 373.144 239.943 375.529C242.635 380.279 245.76 386.455 247.355 391.981C249.827 400.545 251.068 407.287 251.689 411.9C252 414.206 252.155 415.981 252.233 417.185C252.249 417.424 252.257 417.64 252.267 417.833H259.722C259.732 417.64 259.74 417.424 259.755 417.185C259.834 415.981 259.989 414.206 260.299 411.9C260.921 407.287 262.162 400.545 264.633 391.981C266.228 386.455 269.354 380.279 272.045 375.529C273.396 373.144 274.648 371.099 275.564 369.65C275.657 369.502 275.751 369.363 275.837 369.227H236.151Z" fill="#287C48"/>
<ellipse cx="255.994" cy="329.13" rx="31.909" ry="31.5931" fill="#287C48"/>
<path d="M330.584 67.8173C331.158 66.9564 332.162 66.5623 333.075 66.9922C337.837 69.235 352.471 79.0819 360.467 117.467C363.71 133.036 377.76 145.668 385.126 151.364C386.835 152.685 386.343 155.314 384.227 155.452C375.975 155.986 358.739 154.616 335.206 139.634C320.545 130.301 310.097 126.77 303.109 125.665L157.796 343.776C173.248 344.91 184.474 348.327 184.474 352.366C184.473 357.33 167.516 361.354 146.6 361.354C125.683 361.354 108.727 357.33 108.725 352.366C108.725 347.402 125.682 343.378 146.6 343.378C146.729 343.378 146.857 343.377 146.986 343.378L330.326 68.196L330.329 68.1985L330.584 67.8173Z" fill="#287C48"/>
<path d="M181.403 67.8173C180.829 66.9564 179.825 66.5623 178.912 66.9922C174.15 69.235 159.515 79.0819 151.52 117.467C148.277 133.036 134.227 145.668 126.86 151.364C125.152 152.685 125.644 155.314 127.76 155.452C136.011 155.986 153.248 154.616 176.781 139.634C191.441 130.301 201.89 126.77 208.878 125.665L354.191 343.776C338.739 344.91 327.513 348.327 327.513 352.366C327.514 357.33 344.471 361.354 365.387 361.354C386.304 361.354 403.26 357.33 403.262 352.366C403.262 347.402 386.305 343.378 365.387 343.378C365.258 343.378 365.129 343.377 365.001 343.378L181.661 68.196L181.658 68.1985L181.403 67.8173Z" fill="#287C48"/>
<path fill-rule="evenodd" clip-rule="evenodd" d="M452.352 30C463.179 30 471.988 38.7521 471.988 49.6142V269.312C471.988 345.567 432.056 395.217 387.85 426.274L387.86 426.286C386.805 427.027 385.74 427.751 384.672 428.469C366.748 440.652 348.268 449.838 331.575 456.547C303.138 467.975 288.555 477.493 279.638 484.033C275.484 487.079 271.495 490.325 268.425 492.312C264.852 494.624 260.991 496.351 255.994 496.351C250.997 496.351 247.136 494.624 243.563 492.312C240.493 490.325 236.504 487.079 232.351 484.033C223.433 477.493 208.851 467.975 180.413 456.547C163.72 449.838 145.238 440.653 127.314 428.469C126.246 427.751 125.182 427.026 124.128 426.286L124.135 426.274C79.9304 395.217 40 345.566 40 269.312V49.6142C40 38.7521 48.8088 30 59.6358 30H452.352ZM277.305 467.681C268.762 468.839 261.472 469.352 255.994 469.352C250.516 469.352 243.225 468.839 234.68 467.681C237.055 469.273 239.162 470.768 241.059 472.158C246.317 476.015 248.887 478.216 251.565 479.948C253.74 481.357 254.819 481.624 255.994 481.624C257.169 481.624 258.248 481.357 260.424 479.948C263.101 478.216 265.671 476.015 270.929 472.158C272.825 470.768 274.931 469.272 277.305 467.681ZM59.6358 44.7269C56.9071 44.7269 54.7269 46.9207 54.7269 49.6142V269.312C54.7269 339.233 91.1587 385.148 132.585 414.25L132.594 414.238C176.471 445.071 233.792 454.625 255.994 454.625C278.196 454.625 335.517 445.071 379.394 414.238L379.401 414.25C420.828 385.148 457.261 339.234 457.261 269.312V49.6142C457.261 46.9207 455.081 44.7269 452.352 44.7269H59.6358Z" fill="#287C48"/>
<path d="M277.305 467.681C268.762 468.839 261.472 469.352 255.994 469.352C250.516 469.352 243.225 468.839 234.68 467.681C237.055 469.273 239.162 470.768 241.059 472.158C246.317 476.015 248.887 478.216 251.565 479.948C253.74 481.357 254.819 481.624 255.994 481.624C257.169 481.624 258.248 481.357 260.424 479.948C263.101 478.216 265.671 476.015 270.929 472.158C272.825 470.768 274.931 469.272 277.305 467.681Z" fill="#287C48"/>
</svg>
